<svg width="200" height="200" viewBox="0 0 200 200" fill="none" xmlns="http://www.w3.org/2000/svg">
<rect width="200" height="200" fill="#161A36"/>
<path d="M63.7666 101.129C59.5407 100.61 55.6311 98.7126 52.5756 95.657C48.957 92.0384 46.9579 87.2242 46.9579 82.1C46.9579 78.3612 48.0397 74.7489 50.0451 71.6617C57.2696 75.2803 72.579 82.9477 83.9662 88.6539L93.9743 83.6372C80.8411 77.058 47.793 60.5086 47.793 60.5086L45.5029 62.9758C40.6633 68.1886 38 74.983 38 82.1063C38 85.902 38.7465 89.5902 40.2142 93.0569C41.6312 96.4098 43.662 99.4148 46.243 102.002C48.8241 104.583 51.8354 106.614 55.1883 108.031C58.0224 109.227 60.9958 109.942 64.0513 110.169C63.7603 107.164 63.6718 104.147 63.7666 101.129Z" fill="white"/>
<path d="M154.478 62.9695L152.188 60.5023L78.5258 97.4094C75.8118 98.7696 73.003 99.8324 70.1815 100.573C69.8146 100.667 69.4793 100.75 69.1693 100.826C69.0175 104.647 69.1946 108.461 69.7007 112.244C70.0613 114.806 70.5484 117.337 71.1747 119.836C72.5032 125.15 74.4264 130.325 76.9063 135.221C79.3419 140.029 82.3152 144.584 85.744 148.759C89.1538 152.909 93.0254 156.699 97.2514 160.014L100.022 162.19L102.793 160.014C107.019 156.692 110.891 152.909 114.3 148.759C117.729 144.584 120.703 140.029 123.138 135.221C125.618 130.325 127.541 125.15 128.87 119.836C129.679 116.59 130.268 113.276 130.628 109.929H130.635C130.932 106.911 131.021 103.875 130.9 100.838C130.571 100.762 130.211 100.674 129.819 100.573C126.997 99.8324 124.188 98.7696 121.474 97.4094L116.021 94.6765L106.013 99.6932L117.457 105.425C118.906 106.152 120.374 106.804 121.86 107.386C121.569 110.859 121.006 114.3 120.165 117.666C119.001 122.328 117.312 126.877 115.136 131.172C112.997 135.398 110.385 139.396 107.373 143.066C105.134 145.786 102.673 148.335 100.029 150.663C97.3779 148.335 94.917 145.792 92.6838 143.066C89.6662 139.396 87.0598 135.392 84.9216 131.172C82.7454 126.877 81.0563 122.335 79.8922 117.666C79.0509 114.3 78.4878 110.853 78.1968 107.373C79.6708 106.791 81.1322 106.14 82.5619 105.425C82.5619 105.425 141.351 75.9762 149.949 71.6681C151.954 74.7553 153.036 78.3612 153.036 82.1063C153.036 87.2242 151.043 92.0385 147.418 95.6634C144.375 98.7063 140.491 100.598 136.29 101.129C136.392 104.147 136.297 107.164 136.012 110.169C139.049 109.942 142.003 109.227 144.812 108.037C148.165 106.62 151.17 104.59 153.757 102.009C156.338 99.4275 158.369 96.4162 159.786 93.0633C161.254 89.5902 162 85.9084 162 82.1126C161.981 74.983 159.318 68.1887 154.478 62.9695Z" fill="white"/>
<path d="M116.426 57.8137C117.849 54.9289 119.962 52.4491 122.619 50.5575C125.922 48.2105 129.819 46.9706 133.886 46.9706V38.0063C127.946 38.0063 122.253 39.8219 117.426 43.2508C115.104 44.9019 113.048 46.882 111.314 49.1468C110.954 49.6149 110.612 50.0957 110.283 50.5828C107.943 48.1662 105.437 45.8951 102.78 43.8075L100.01 41.6312L97.1438 43.877C94.7462 45.7686 92.4371 47.8309 90.2862 50.0071C90.0901 50.2033 89.9003 50.3994 89.7105 50.6018C89.3752 50.1084 89.0273 49.6149 88.6604 49.1405C86.927 46.882 84.871 44.8956 82.5492 43.2444C77.7223 39.8156 72.0287 38 66.0884 38V46.9642C70.1562 46.9642 74.0531 48.2042 77.3554 50.5512C80.0251 52.4491 82.1444 54.9416 83.5678 57.8327C82.8149 58.8449 82.0874 59.8697 81.3915 60.9135C79.6645 63.4946 78.1019 66.1896 76.7165 68.9668L84.7318 72.9839C87.7937 66.8412 91.7981 61.2425 96.6693 56.308C97.7448 55.2199 98.8582 54.1698 100.01 53.1576C106.336 58.7183 111.53 65.4684 115.281 72.9713L123.296 68.9541C121.342 65.0509 119.039 61.3184 116.426 57.8137Z" fill="white"/>
<path d="M133.678 95.9228C137.378 95.9228 140.851 94.4804 143.471 91.8677C146.09 89.255 147.526 85.7755 147.526 82.0747C147.526 81.0182 147.405 79.9807 147.178 78.9812C145.451 79.8479 143.553 80.7968 141.541 81.8027C141.541 81.8913 141.547 81.9861 141.547 82.0747C141.547 86.4145 138.017 89.9445 133.678 89.9445C131.818 89.9445 130.103 89.2929 128.749 88.2048C126.845 89.1601 124.954 90.109 123.113 91.0263C123.36 91.311 123.613 91.5893 123.885 91.8614C126.497 94.4804 129.977 95.9228 133.678 95.9228Z" fill="white"/>
<path d="M56.4851 91.8614C59.0978 94.4741 62.5772 95.9165 66.2781 95.9165C69.9789 95.9165 73.452 94.4741 76.071 91.8614C76.3431 91.5893 76.5961 91.311 76.8428 91.0263C75.0019 90.1027 73.1104 89.1537 71.2062 88.2048C69.8587 89.2929 68.1443 89.9445 66.2781 89.9445C61.9383 89.9445 58.4083 86.4145 58.4083 82.0747C58.4083 81.9861 58.4083 81.8913 58.4146 81.8027C56.4028 80.7968 54.505 79.8416 52.7779 78.9812C52.5502 79.9871 52.43 81.0246 52.43 82.0747C52.43 85.7692 53.8724 89.2486 56.4851 91.8614Z" fill="white"/>
</svg>
